 <svg xmlns="http://www.w3.org/2000/svg" width="32" height="32" fill="none">
  <symbol id="search">
            <path fill="#ebd300"
              d="M25.253 23.026 32 29.77 29.771 32l-6.745-6.747a14.1 14.1 0 0 1-8.849 3.102C6.351 28.355 0 22.003 0 14.177S6.351 0 14.177 0s14.178 6.351 14.178 14.177a14.1 14.1 0 0 1-3.102 8.849m-3.16-1.17a11 11 0 0 0 3.111-7.679c0-6.091-4.935-11.026-11.027-11.026S3.151 8.086 3.151 14.177s4.935 11.027 11.026 11.027a11 11 0 0 0 7.68-3.11z" />
   </symbol>
          </svg>