<svg xmlns="http://www.w3.org/2000/svg" width="40" height="40" fill="none">
 <symbol id="Travelor">
        <path fill="#f8f8f8"
       
          d="M5.638 18.015c.526-.707 1.219-1.665 1.774-2.35 1.661-1.885 1.877-2.132 3.39-3.527.448-.368.98-.81 1.5-1.227-3.838 3.248-4.327 6.845-.805 9.067q-.008-.002-.006.006c4.925 2.967 15.718 2.326 24.234-1.475 8.248-3.68 11.293-8.944 7.222-12.072-3.574-.67-7.835-.747-12.343-.144l-.468-.773.388-1.282c2.65-.239 5.169-.181 7.343.19.526.089 1.219.241 1.736.35 1 .245 1.544.391 2.197.601.667.199 1.236.397 2.228.765.971.382 1.391.555 2.17.943q1.31.597 2.539 1.348c6.486 4.08 2.452 11.523-8.993 16.624C28.33 30.142 13.786 30.94 7.268 26.91q-.004-.01-.029-.017h.012c-3.56-2.254-3.933-5.526-1.613-8.878m29.696 28.52-.092-4.583-3.258-3.622c-10.76 2.438-21.338 1.914-27.22-1.55-.02-.023-.07-.046-.09-.07-3.329-2.049-4.15-4.694-3.9-7.569-.78 4.206-.843 5.724-.731 9.324.138 2.254 1.44 4.332 4.06 5.971l.02.023c6.27 3.898 19.334 4.744 31.21 2.076m13.584 5.247c-15.189 6.092-34.198 6.451-42.455.813a23.6 23.6 0 0 0 3.6 6.032c7.578 5.175 25.026 4.844 38.961-.748 8.157-3.268 13.303-7.618 14.654-11.695l.38-1.228c.9-3.11 1.07-5.7 1.213-8.007-.164 5.006-6.06 10.698-16.353 14.833M15.39 63.515c.477.454 1.978 2.297 9.582 4.332 2.056.454 7.23 1.912 16.79-.207l.058-.871-.757-1.184c-8.869 2.098-18.722 1.397-25.673-2.07m21.947-36.251 8.076 6.12s1.728 1.245.098 2.12c-1.624.865-5.796 2.984-5.796 2.984l-4.12-1.538-2.067.92 3.646 3.165.028 4.925 2.142-.952 1.42-4.16s4.362-1.679 6.093-2.312c1.739-.618 1.506 1.498 1.506 1.498l-.857 10.095 2.847-1.265 4.686-13.62s2.484-1.207 4.232-2.268c1.745-1.06 2.343-2.82 2.343-2.82s-1.702-.733-3.663-.144c-1.96.584-4.516 1.625-4.516 1.625l-13.26-5.633zM20.252 7.898l5.483 4.367 1.498-.225-2.984-3.918s-.65-.81.224-1.003c.88-.196 3.105-.65 3.105-.65l1.673 1.337 1.127-.167-1.276-2.03.672-2.251-1.09.158-1.29 1.714s-2.266.212-3.157.287c-.897.07-.512-.894-.512-.894L25.444 0l-1.507.221-3.967 5.776s-1.323.242-2.28.515c-.96.27-1.466 1.012-1.466 1.012s.704.57 1.696.549c1-.02 2.331-.175 2.331-.175m27.097 56.114-3.547-1.855-.817.285 2.102 1.88s.448.383-.023.587c-.472.201-1.674.696-1.674.696l-.992-.443-.589.213.825.88-.08 1.285.615-.213.46-1.044s1.248-.37 1.745-.503c.495-.135.383.446.383.446L45.286 69l.82-.285 1.607-3.668s.71-.279 1.22-.535c.508-.256.71-.727.71-.727s-.452-.247-1.01-.124c-.56.118-1.285.35-1.285.35" />
     </symbol>
      </svg>