<svg class="svg_content" xmlns="http://www.w3.org/2000/svg" width="34" height="39" fill="none">
 <symbol id="24h">
            <path fill="#ebd300"
              d="M8.472 4.82a9.6 9.6 0 1 1-.346 8.9 3.6 3.6 0 0 1-2.121.69h-1.2v.613c0 .456.173.871.456 1.185a1.798 1.798 0 0 1 2.99 1.924 1.8 1.8 0 0 1-1.819 1.062 4.174 4.174 0 0 1-4.027-4.171V6.018a1.2 1.2 0 0 1 1.2-1.2h4.8zm-3.667 7.19h1.2a1.2 1.2 0 0 0 1.2-1.2v-.887a10 10 0 0 1 0-.643V7.218h-2.4zM0 26.402c0-2.671 2.167-4.8 4.822-4.8H28.8a4.8 4.8 0 0 1 4.8 4.8c0 4.059-2 7.119-5.124 9.113-3.077 1.96-7.224 2.887-11.676 2.887s-8.6-.926-11.676-2.887C1.999 33.522 0 30.457 0 26.401" />
         </symbol>
          </svg>