<svg class="svg_content" xmlns="http://www.w3.org/2000/svg" width="38" height="39" fill="none">
 <symbol id="beachs">
            <path stroke="#ebd300" stroke-linecap="round" stroke-linejoin="round" stroke-width="2"
              d="M30.392 2.856C25.196-.144 18 .32 15 5.516l6.928 4m8.464-6.66c5.196 3 8.392 9.464 5.392 14.66l-10.392-6m5-8.66 1-1.732m-1 1.732c-3.642.976-5.964 2.33-8.464 6.66m8.464-6.66c.976 3.642.964 6.33-1.536 10.66m-6.928-4 3.464 2m0 0-6 10.392M1 37.124l1.76-2.112a4.003 4.003 0 0 1 6.278.16 4 4 0 0 0 6.214.236l.38-.436a4.472 4.472 0 0 1 6.734 0l.382.436a4.003 4.003 0 0 0 6.214-.234 4.002 4.002 0 0 1 6.28-.16L37 37.124m-28.584-10a15.94 15.94 0 0 1 10.584-4 15.94 15.94 0 0 1 10.584 4" />
        </symbol>
          </svg>